<svg xmlns="http://www.w3.org/2000/svg" viewBox="0 0 128 128">
  <defs>
    <linearGradient id="heartGradient" x1="20" y1="12" x2="112" y2="116" gradientUnits="userSpaceOnUse">
      <stop offset="0" stop-color="#103b65" />
      <stop offset="0.5" stop-color="#0f5b84" />
      <stop offset="1" stop-color="#0b7fa4" />
    </linearGradient>
    <linearGradient id="accentGradient" x1="70" y1="32" x2="120" y2="108" gradientUnits="userSpaceOnUse">
      <stop offset="0" stop-color="#1f7a9c" />
      <stop offset="1" stop-color="#4caf50" />
    </linearGradient>
  </defs>
  <path d="M64 118L19.8 73.4C7.6 61.3 0 48.5 0 34.7 0 17.6 13.4 4 30 4c11.3 0 22.3 5.3 29 14.1C65.7 9.3 76.7 4 88 4c16.6 0 30 13.6 30 30.7 0 13.8-7.6 26.6-19.8 38.7L64 118z" fill="url(#heartGradient)" />
  <path d="M64 118l28.4-28.5C112.6 69.7 120 57.6 120 42.8c0-10.7-8.8-19.5-19.6-19.4-8.6.1-16.8 4.7-21.5 12.1L64 40z" fill="url(#accentGradient)" opacity="0.95" />
  <path d="M57 34.5C53.4 26.1 45.3 21 36.5 21 25.9 21 17.4 29.7 17.5 40.1c0 13.1 7.4 24.3 20.1 36.9L64 102z" fill="#0c2740" opacity="0.18" />
  <rect x="54" y="36" width="20" height="56" rx="6" fill="#1f8bbd" />
  <rect x="36" y="54" width="56" height="20" rx="6" fill="#1f8bbd" />
  <rect x="56" y="38" width="16" height="52" rx="4" fill="#d9f0ff" />
  <rect x="38" y="56" width="52" height="16" rx="4" fill="#d9f0ff" />
</svg>
